<svg xmlns="http://www.w3.org/2000/svg" version="1.1"
   xmlns:xlink="http://www.w3.org/1999/xlink"
   xmlns:svgjs="http://svgjs.dev/svgjs" width="1000" height="1000" viewBox="0 0 1000 1000">
   <rect width="1000" height="1000" fill="#ffffff"></rect>
   <g transform="matrix(0.7,0,0,0.7,150.61875427637165,146.08680161943317)">
      <svg viewBox="0 0 244 247" data-background-color="#ffffff" preserveAspectRatio="xMidYMid meet" height="1012" width="1000"
         xmlns="http://www.w3.org/2000/svg"
         xmlns:xlink="http://www.w3.org/1999/xlink">
         <g id="tight-bounds" transform="matrix(1,0,0,1,-0.21567993795036955,-0.09999999999999432)">
            <svg viewBox="0 0 244.43135999999996 247.2" height="247.2" width="244.43135999999996">
               <g>
                  <svg></svg>
               </g>
               <g>
                  <svg viewBox="0 0 244.43135999999996 247.2" height="247.2" width="244.43135999999996">
                     <g transform="matrix(1,0,0,1,0,101.99999693372371)">
                        <svg viewBox="0 0 244.43135999999996 43.20000613255256" height="43.20000613255256" width="244.43135999999996">
                           <g>
                              <svg viewBox="0 0 244.43135999999996 43.20000613255256" height="43.20000613255256" width="244.43135999999996">
                                 <g>
                                    <svg viewBox="0 0 244.43135999999996 43.20000613255256" height="43.20000613255256" width="244.43135999999996">
                                       <g>
                                          <svg viewBox="0 0 244.43135999999996 43.20000613255256" height="43.20000613255256" width="244.43135999999996">
                                             <g>
                                                <svg viewBox="0 0 244.43135999999996 43.20000613255256" height="43.20000613255256" width="244.43135999999996">
                                                   <g>
                                                      <svg viewBox="0 0 244.43135999999996 43.20000613255256" height="43.20000613255256" width="244.43135999999996">
                                                         <g transform="matrix(1,0,0,1,0,0)">
                                                            <svg width="244.43135999999996" viewBox="2.1500000953674316 -33 187.8400115966797 33.20000076293945" height="43.20000613255256" data-palette-color="#30017e">
                                                               <path d="M24.7 0L9.35 0 9.35-0.8 14.4-2.8 14.4-30.25 6.5-30.25 2.95-22.7 2.15-22.7 2.15-33 31.85-33 31.85-22.7 31.05-22.7 27.55-30.25 19.6-30.25 19.6-2.8 24.7-0.8 24.7 0ZM44.8 0L35.5 0 35.5-0.8 38.05-2.15 49.15-28.25 51.75-28.25 62.75-2.25 65.7-0.8 65.7 0 54.1 0 54.1-0.8 57.6-2.25 54.5-9.65 44.2-9.65 41.15-2.2 44.8-0.8 44.8 0ZM49.3-22.1L45.25-12.15 53.45-12.15 49.3-22.1ZM80.2 0L70 0 70-0.8 73.55-2.45 74.5-25.55 70.65-27.2 70.65-28 80.3-28 89.45-7.5 98.9-28 108.1-28 108.1-27.2 104.4-25.85 105.09-2.45 108.3-0.8 108.3 0 96.7 0 96.7-0.8 100.05-2.4 99.59-23.15 88.85 0.2 87.35 0.2 77.05-23.1 76.55-2.4 80.2-0.8 80.2 0ZM121.89 0L112.59 0 112.59-0.8 115.14-2.15 126.24-28.25 128.84-28.25 139.84-2.25 142.79-0.8 142.79 0 131.19 0 131.19-0.8 134.69-2.25 131.59-9.65 121.29-9.65 118.24-2.2 121.89-0.8 121.89 0ZM126.39-22.1L122.34-12.15 130.54-12.15 126.39-22.1ZM170.64 0L148.74 0 148.74-1.1 163.74-25.5 152.64-25.5 150.04-19.85 149.24-19.85 149.24-28 170.14-28 170.14-26.9 155.09-2.5 167.09-2.5 169.84-8.6 170.64-8.6 170.64 0ZM189.99 0L178.24 0 178.24-0.8 181.54-2.45 181.54-25.55 178.24-27.2 178.24-28 189.99-28 189.99-27.2 186.54-25.55 186.54-2.45 189.99-0.8 189.99 0Z" opacity="1" transform="matrix(1,0,0,1,0,0)" fill="#000000" class="undefined-text-0" data-fill-palette-color="primary" id="text-0"></path>
                                                            </svg>
                                                         </g>
                                                      </svg>
                                                   </g>
                                                </svg>
                                             </g>
                                          </svg>
                                       </g>
                                       <g></g>
                                    </svg>
                                 </g>
                              </svg>
                           </g>
                        </svg>
                     </g>
                     <path d="M0 96L0 1 244.431 1 244.431 96 240.536 96 240.536 4.896 3.896 4.896 3.896 96 0 96M0 151.2L0 246.2 244.431 246.2 244.431 151.2 240.536 151.2 240.536 242.304 3.896 242.304 3.896 151.2 0 151.2" fill="#000000" stroke="transparent" data-fill-palette-color="primary"></path>
                  </svg>
               </g>
               <defs></defs>
            </svg>
            <rect width="244.43135999999996" height="247.2" fill="none" stroke="none" visibility="hidden"></rect>
         </g>
      </svg>
   </g>
</svg>